<svg width="152" height="86" viewBox="0 0 152 86" fill="none" xmlns="http://www.w3.org/2000/svg">
<path d="M0 4.08C0 4.00572 0 3.96858 0.00049347 3.93717C0.0344248 1.77721 1.77721 0.0344248 3.93717 0.00049347C3.96858 0 4.00572 0 4.08 0H147.92C147.994 0 148.031 0 148.063 0.00049347C150.223 0.0344248 151.966 1.77721 152 3.93717C152 3.96858 152 4.00572 152 4.08V16H0V4.08Z" fill="#A3A3A3"/>
<g filter="url(#filter0_d_4516_172125)">
<path d="M61.5118 5.416C62.0985 5.416 62.6131 5.53067 63.0558 5.76C63.5038 5.98933 63.8478 6.31733 64.0878 6.744C64.3331 7.16533 64.4558 7.656 64.4558 8.216C64.4558 8.776 64.3331 9.26667 64.0878 9.688C63.8478 10.104 63.5038 10.4267 63.0558 10.656C62.6131 10.8853 62.0985 11 61.5118 11H59.5598V5.416H61.5118ZM61.4718 10.048C62.0585 10.048 62.5118 9.888 62.8318 9.568C63.1518 9.248 63.3118 8.79733 63.3118 8.216C63.3118 7.63467 63.1518 7.18133 62.8318 6.856C62.5118 6.52533 62.0585 6.36 61.4718 6.36H60.6798V10.048H61.4718ZM65.0062 8.768C65.0062 8.32 65.0942 7.92267 65.2702 7.576C65.4515 7.22933 65.6942 6.96267 65.9982 6.776C66.3075 6.58933 66.6515 6.496 67.0302 6.496C67.3609 6.496 67.6489 6.56267 67.8942 6.696C68.1449 6.82933 68.3449 6.99733 68.4942 7.2V6.568H69.6222V11H68.4942V10.352C68.3502 10.56 68.1502 10.7333 67.8942 10.872C67.6435 11.0053 67.3529 11.072 67.0222 11.072C66.6489 11.072 66.3075 10.976 65.9982 10.784C65.6942 10.592 65.4515 10.3227 65.2702 9.976C65.0942 9.624 65.0062 9.22133 65.0062 8.768ZM68.4942 8.784C68.4942 8.512 68.4409 8.28 68.3342 8.088C68.2275 7.89067 68.0835 7.74133 67.9022 7.64C67.7209 7.53333 67.5262 7.48 67.3182 7.48C67.1102 7.48 66.9182 7.53067 66.7422 7.632C66.5662 7.73333 66.4222 7.88267 66.3102 8.08C66.2035 8.272 66.1502 8.50133 66.1502 8.768C66.1502 9.03467 66.2035 9.26933 66.3102 9.472C66.4222 9.66933 66.5662 9.82133 66.7422 9.928C66.9235 10.0347 67.1155 10.088 67.3182 10.088C67.5262 10.088 67.7209 10.0373 67.9022 9.936C68.0835 9.82933 68.2275 9.68 68.3342 9.488C68.4409 9.29067 68.4942 9.056 68.4942 8.784ZM72.0201 7.488V9.632C72.0201 9.78133 72.0547 9.89067 72.1241 9.96C72.1987 10.024 72.3214 10.056 72.4921 10.056H73.0121V11H72.3081C71.3641 11 70.8921 10.5413 70.8921 9.624V7.488H70.3641V6.568H70.8921V5.472H72.0201V6.568H73.0121V7.488H72.0201ZM73.5296 8.768C73.5296 8.32 73.6176 7.92267 73.7936 7.576C73.975 7.22933 74.2176 6.96267 74.5216 6.776C74.831 6.58933 75.175 6.496 75.5536 6.496C75.8843 6.496 76.1723 6.56267 76.4176 6.696C76.6683 6.82933 76.8683 6.99733 77.0176 7.2V6.568H78.1456V11H77.0176V10.352C76.8736 10.56 76.6736 10.7333 76.4176 10.872C76.167 11.0053 75.8763 11.072 75.5456 11.072C75.1723 11.072 74.831 10.976 74.5216 10.784C74.2176 10.592 73.975 10.3227 73.7936 9.976C73.6176 9.624 73.5296 9.22133 73.5296 8.768ZM77.0176 8.784C77.0176 8.512 76.9643 8.28 76.8576 8.088C76.751 7.89067 76.607 7.74133 76.4256 7.64C76.2443 7.53333 76.0496 7.48 75.8416 7.48C75.6336 7.48 75.4416 7.53067 75.2656 7.632C75.0896 7.73333 74.9456 7.88267 74.8336 8.08C74.727 8.272 74.6736 8.50133 74.6736 8.768C74.6736 9.03467 74.727 9.26933 74.8336 9.472C74.9456 9.66933 75.0896 9.82133 75.2656 9.928C75.447 10.0347 75.639 10.088 75.8416 10.088C76.0496 10.088 76.2443 10.0373 76.4256 9.936C76.607 9.82933 76.751 9.68 76.8576 9.488C76.9643 9.29067 77.0176 9.056 77.0176 8.784ZM82.8418 11.072C82.4791 11.072 82.1538 11.008 81.8658 10.88C81.5778 10.7467 81.3484 10.568 81.1778 10.344C81.0124 10.12 80.9218 9.872 80.9058 9.6H82.0338C82.0551 9.77067 82.1378 9.912 82.2818 10.024C82.4311 10.136 82.6151 10.192 82.8338 10.192C83.0471 10.192 83.2124 10.1493 83.3298 10.064C83.4524 9.97867 83.5138 9.86933 83.5138 9.736C83.5138 9.592 83.4391 9.48533 83.2898 9.416C83.1458 9.34133 82.9138 9.26133 82.5938 9.176C82.2631 9.096 81.9911 9.01333 81.7778 8.928C81.5698 8.84267 81.3884 8.712 81.2338 8.536C81.0844 8.36 81.0098 8.12267 81.0098 7.824C81.0098 7.57867 81.0791 7.35467 81.2178 7.152C81.3618 6.94933 81.5644 6.78933 81.8258 6.672C82.0924 6.55467 82.4044 6.496 82.7618 6.496C83.2898 6.496 83.7111 6.62933 84.0258 6.896C84.3404 7.15733 84.5138 7.512 84.5458 7.96H83.4738C83.4578 7.784 83.3831 7.64533 83.2498 7.544C83.1218 7.43733 82.9484 7.384 82.7298 7.384C82.5271 7.384 82.3698 7.42133 82.2578 7.496C82.1511 7.57067 82.0978 7.67467 82.0978 7.808C82.0978 7.95733 82.1724 8.072 82.3218 8.152C82.4711 8.22667 82.7031 8.304 83.0178 8.384C83.3378 8.464 83.6018 8.54667 83.8098 8.632C84.0178 8.71733 84.1964 8.85067 84.3458 9.032C84.5004 9.208 84.5804 9.44267 84.5858 9.736C84.5858 9.992 84.5138 10.2213 84.3698 10.424C84.2311 10.6267 84.0284 10.7867 83.7618 10.904C83.5004 11.016 83.1938 11.072 82.8418 11.072ZM89.6251 8.688C89.6251 8.848 89.6145 8.992 89.5931 9.12H86.3531C86.3798 9.44 86.4918 9.69067 86.6891 9.872C86.8865 10.0533 87.1291 10.144 87.4171 10.144C87.8331 10.144 88.1291 9.96533 88.3051 9.608H89.5131C89.3851 10.0347 89.1398 10.3867 88.7771 10.664C88.4145 10.936 87.9691 11.072 87.4411 11.072C87.0145 11.072 86.6305 10.9787 86.2891 10.792C85.9531 10.6 85.6891 10.3307 85.4971 9.984C85.3105 9.63733 85.2171 9.23733 85.2171 8.784C85.2171 8.32533 85.3105 7.92267 85.4971 7.576C85.6838 7.22933 85.9451 6.96267 86.2811 6.776C86.6171 6.58933 87.0038 6.496 87.4411 6.496C87.8625 6.496 88.2385 6.58667 88.5691 6.768C88.9051 6.94933 89.1638 7.208 89.3451 7.544C89.5318 7.87467 89.6251 8.256 89.6251 8.688ZM88.4651 8.368C88.4598 8.08 88.3558 7.85067 88.1531 7.68C87.9505 7.504 87.7025 7.416 87.4091 7.416C87.1318 7.416 86.8971 7.50133 86.7051 7.672C86.5185 7.83733 86.4038 8.06933 86.3611 8.368H88.4651ZM91.7466 7.488V9.632C91.7466 9.78133 91.7813 9.89067 91.8506 9.96C91.9253 10.024 92.048 10.056 92.2186 10.056H92.7386V11H92.0346C91.0906 11 90.6186 10.5413 90.6186 9.624V7.488H90.0906V6.568H90.6186V5.472H91.7466V6.568H92.7386V7.488H91.7466Z" fill="white"/>
</g>
<mask id="path-3-inside-1_4516_172125" fill="white">
<path d="M0 16H152V56C152 58.2091 150.209 60 148 60H4C1.79086 60 0 58.2091 0 56V16Z"/>
</mask>
<path d="M0 16H152V56C152 58.2091 150.209 60 148 60H4C1.79086 60 0 58.2091 0 56V16Z" fill="#F0F0F0"/>
<path d="M0 16H152H0ZM153 56C153 58.7614 150.761 61 148 61H4C1.23858 61 -1 58.7614 -1 56H1C1 57.6569 2.34315 59 4 59H148C149.657 59 151 57.6569 151 56H153ZM4 61C1.23858 61 -1 58.7614 -1 56V16H1V56C1 57.6569 2.34315 59 4 59V61ZM153 16V56C153 58.7614 150.761 61 148 61V59C149.657 59 151 57.6569 151 56V16H153Z" fill="#D8D8D8" mask="url(#path-3-inside-1_4516_172125)"/>

</svg>
